<?xml version="1.0" standalone="no"?>
<!DOCTYPE svg PUBLIC "-//W3C//DTD SVG 20010904//EN"
 "http://www.w3.org/TR/2001/REC-SVG-20010904/DTD/svg10.dtd">
<svg version="1.0" xmlns="http://www.w3.org/2000/svg"
 width="50.000000pt" height="50.000000pt" viewBox="0 0 50.000000 50.000000"
 preserveAspectRatio="xMidYMid meet">
<metadata>
Created by potrace 1.16, written by Peter Selinger 2001-2019
</metadata>
<g transform="translate(0.000000,50.000000) scale(0.100000,-0.100000)"
fill="#000000" stroke="none">
<path d="M188 318 c-6 -35 -14 -55 -16 -45 -5 24 -39 22 -47 -3 -6 -17 -12
-20 -41 -14 -30 5 -34 4 -34 -15 0 -20 3 -21 51 -15 46 6 51 5 56 -15 9 -36
36 -20 48 29 l11 45 8 -50 c17 -112 33 -125 62 -48 16 42 19 44 27 25 13 -28
33 -28 47 -1 10 17 17 20 51 14 35 -6 39 -5 39 14 0 19 -4 20 -59 15 -54 -6
-59 -5 -66 15 -10 32 -32 25 -46 -14 -15 -39 -23 -32 -33 30 -14 82 -18 95
-31 95 -9 0 -18 -22 -27 -62z"/>
</g>
</svg>
