<?xml version="1.0" standalone="no"?>
<!DOCTYPE svg PUBLIC "-//W3C//DTD SVG 20010904//EN"
 "http://www.w3.org/TR/2001/REC-SVG-20010904/DTD/svg10.dtd">
<svg version="1.0" xmlns="http://www.w3.org/2000/svg"
 width="64.000000pt" height="64.000000pt" viewBox="0 0 64.000000 64.000000"
 preserveAspectRatio="xMidYMid meet">
<metadata>
Created by potrace 1.16, written by Peter Selinger 2001-2019
</metadata>
<g transform="translate(0.000000,64.000000) scale(0.100000,-0.100000)"
fill="#CE1126" stroke="#FCD116">
<path d="M113 520 c-18 -10 -39 -33 -48 -49 -18 -35 -20 -110 -3 -146 9 -21
18 -25 53 -25 26 0 48 6 55 15 17 21 50 19 75 -5 l21 -20 24 57 c12 32 27 62
32 68 14 16 26 -12 33 -79 10 -82 18 -96 35 -57 14 36 37 51 74 51 19 0 26 -5
26 -20 0 -16 -7 -20 -34 -20 -28 0 -36 -5 -46 -29 -6 -16 -21 -38 -32 -47 -25
-24 -34 -10 -43 68 -4 32 -10 58 -14 58 -4 0 -14 -18 -21 -41 -8 -22 -17 -42
-21 -45 -4 -2 -21 7 -37 21 -35 29 -48 31 -68 10 -9 -8 -29 -15 -45 -15 -16 0
-29 -4 -29 -9 0 -23 192 -181 220 -181 39 0 201 144 241 214 51 90 33 193 -40
231 -43 22 -129 19 -168 -5 -33 -20 -33 -20 -65 0 -44 27 -131 27 -175 0z"/>
</g>
</svg>
